<svg width="119" height="113" viewBox="0 0 119 113" fill="none" xmlns="http://www.w3.org/2000/svg">
<path d="M107.52 29.7764C107.143 30.6192 106.59 31.3487 106.099 32.1286C106.074 32.6317 105.797 32.9085 105.332 33.0217C105.206 33.1223 105.068 33.2229 104.954 33.3361C103.583 34.682 102.011 35.7638 100.376 36.7323C96.7658 38.8706 92.8287 40.2165 88.7281 41.0719C83.093 42.2417 77.3824 42.4303 71.6592 42.1536C70.9548 42.1159 70.263 42.0656 69.5209 42.0152C69.6593 41.7385 69.8857 41.6882 70.0618 41.5876C74.3258 39.1348 78.6277 36.7575 82.8163 34.1915C87.5206 31.2984 89.7847 27.0972 89.3571 21.613C89.1307 18.6697 87.6464 16.3427 84.9169 14.9968C84.0615 14.5691 83.1559 14.3301 82.1748 14.4811C82.9295 14.6194 83.6842 14.7704 84.4012 15.0848C87.4326 16.4559 89.269 19.7011 88.9294 23.286C88.5143 27.6758 86.5646 31.1978 82.6528 33.4242C77.7472 36.2166 72.8039 38.9587 67.8857 41.7259C67.6844 41.8391 67.4958 41.8517 67.2819 41.8266C64.2505 41.5624 61.2569 41.1096 58.2506 40.7197C58.0116 40.6945 57.9236 40.619 57.9362 40.3675C57.9865 38.8203 58.0116 37.2732 58.4519 35.7638C58.7538 34.7323 59.3198 33.8267 59.8355 32.8959C60.0116 32.594 60.0996 32.3047 59.8355 32.0028C58.8921 32.8456 58.3512 33.9525 57.7852 35.1726C57.4708 33.4116 57.1311 31.8016 56.5651 30.2544C56.2884 30.1915 56.0117 30.1286 55.9236 30.5311C56.955 33.6003 57.3198 36.7575 57.194 39.9901C57.1689 40.4681 57.0557 40.5939 56.5651 40.531C55.6972 40.4052 54.8167 40.3297 53.9362 40.2668C48.9426 39.8769 44.0118 40.1788 39.1691 41.5247C38.0874 41.8266 37.4836 41.6882 36.6912 40.8455C29.6095 33.3739 18.377 34.8833 12.4652 41.8769C9.58469 45.2731 8.28911 49.2982 8.32685 53.7132C8.35201 57.537 9.42117 61.0212 12.0878 63.8891C12.2891 64.103 12.2513 64.2665 12.1507 64.5055C11.5847 65.8136 11.0815 67.1469 10.679 68.5054C9.92431 71.0211 9.33312 73.5619 9.14445 76.1782C9.76079 76.6562 10.0627 76.7317 10.3897 76.4172C10.4023 76.4047 10.4149 76.3921 10.4274 76.3795C10.4526 76.3543 10.4652 76.3418 10.4778 76.3166C10.5155 76.1908 10.5407 76.0776 10.5532 75.9518C11.0186 72.5179 11.8488 69.1595 13.1821 65.952C13.4337 65.3356 13.4463 65.3231 14.0249 65.6627C15.5594 66.5432 17.1946 67.1092 18.9682 67.1721C21.4839 67.2476 23.7228 66.4425 25.6473 64.8451C26.9681 63.7508 28.1001 62.4929 28.3643 60.6816C28.4523 60.015 28.3265 59.386 28.0121 58.8074C27.8737 58.5559 27.6725 58.2666 27.3203 58.4301C27.0058 58.581 27.0813 58.8955 27.1945 59.1471C27.7228 60.3169 27.3454 61.3609 26.7039 62.342C26.1002 63.2476 25.2951 63.9394 24.3769 64.518C21.2952 66.4425 17.66 66.4048 14.5532 64.4929C14.1255 64.2287 14.0375 63.9646 14.289 63.5118C14.6915 62.7696 15.0563 62.0149 15.4714 61.298C17.5468 57.6628 20.138 54.4553 23.2826 51.7006C25.509 49.751 27.9366 48.0529 30.5403 46.6567C32.402 45.6504 34.2761 44.6693 36.3767 44.2039C37.7352 43.902 37.7226 43.9397 38.3138 45.2353C39.1566 47.0718 39.5088 49.0214 39.7478 50.9962C39.8358 51.2981 39.7981 51.6126 39.8106 51.927C39.8106 52.3421 39.8232 52.6189 39.8861 52.7824C39.9113 52.8453 39.949 52.8956 39.9867 52.9207C40.1377 53.0214 40.4018 52.9207 40.905 52.6692C40.9301 52.6566 40.9553 52.644 40.9804 52.6314C41.1691 52.4302 41.144 52.166 41.1565 51.9145C41.1565 49.2101 40.6282 46.6315 39.3704 44.2165C39.1691 43.8391 39.1566 43.7008 39.6471 43.6379C41.3578 43.4114 43.0685 43.3989 44.7791 43.3108C46.037 43.2479 47.2822 43.3486 48.5401 43.3989C50.9426 43.5121 53.2947 43.8643 55.6092 44.4806C56.2758 44.6567 56.3135 44.7699 56.1374 45.4114C55.106 49.1724 53.1186 52.3924 50.4772 55.2226C47.7979 58.0779 44.7665 60.5055 41.4836 62.6564C40.0119 63.625 38.5151 64.5558 37.0308 65.4866C37.9868 64.3797 38.7289 63.1344 39.3075 61.7885C39.6974 60.8955 40.1628 60.0024 40.2132 58.9961C40.188 58.971 40.1754 58.9332 40.1628 58.9081C40.1503 58.8703 40.1377 58.8452 40.1251 58.8074C40.0622 58.6062 40.0748 58.4049 40.0874 58.1785C40.1125 57.7383 39.9364 57.6125 39.5088 57.7509C39.4962 57.7509 39.4836 57.7509 39.471 57.7634C39.4585 57.7634 39.4459 57.776 39.4333 57.776C39.3956 57.8263 39.3704 57.8766 39.3578 57.9395C39.3201 58.0779 39.3327 58.2414 39.3327 58.3924C39.3327 58.5181 39.3201 58.6313 39.2446 58.732C39.2195 58.7823 39.1691 58.82 39.1188 58.8578C39.0559 58.9458 39.0056 59.0339 38.9805 59.1345C38.0119 62.7571 35.7478 65.4237 32.729 67.4991C29.6599 69.6123 26.4398 71.4991 23.3832 73.6248C21.3707 75.0336 19.4084 76.4801 17.7229 78.2788C17.5594 78.4549 17.3707 78.6185 17.333 78.8826V78.8952C17.333 78.9329 17.3456 78.9581 17.3456 78.9958C17.4965 80.631 17.0814 81.1216 15.4588 81.3228C15.4337 81.3228 15.4211 81.3228 15.3959 81.3354C15.3708 81.3354 15.3456 81.348 15.3205 81.348C15.2827 81.3606 15.245 81.3731 15.2198 81.3857C14.9808 81.4989 14.8425 81.7002 14.7041 81.914C14.4274 82.3165 14.2639 82.7693 14.0375 83.197C13.0689 85.0335 12.5784 87.0208 12.3645 89.0711C12.2513 90.1403 12.1633 91.2095 12.2891 92.2157C12.2387 92.0019 12.1507 91.7755 12.0752 91.5365C11.2073 88.8196 10.6539 86.0272 10.4274 83.1844C10.3646 82.4423 10.4778 81.675 10.1759 80.9706C10.1633 80.9706 10.1507 80.9706 10.1381 80.9706C9.09413 81.1341 8.89288 81.348 8.99351 82.3543C8.99351 82.4046 9.00609 82.4549 9.00609 82.5052C9.06898 83.2347 9.09413 83.9769 9.18218 84.6938C10.0375 91.1088 12.3519 96.9452 16.1884 102.165C19.4713 106.643 23.4839 110.278 28.5278 112.706C28.7919 112.832 29.0435 113.033 29.4209 112.995C29.2573 112.681 28.9932 112.593 28.7794 112.467C23.748 109.473 19.5594 105.561 16.3645 100.668C13.1695 95.7754 12.6287 90.5554 14.8802 85.0964C15.6223 83.2976 16.7544 81.7505 17.9619 80.2537C18.0751 80.0272 18.1003 79.7883 18.1254 79.5367C18.1883 78.6436 18.6663 78.1405 19.572 78.0399C19.8361 78.0021 20.1128 78.0147 20.3518 77.8638C21.1694 77.2474 21.899 76.543 22.7417 75.9393C25.0939 74.2663 27.4461 72.5808 30.2385 71.6752C33.6472 70.5683 37.144 70.4551 40.6786 70.6312C41.9112 70.6941 43.1314 70.8576 44.3011 71.323C47.6973 72.7192 48.8294 76.543 46.7414 79.5493C45.5841 81.197 43.9615 82.1782 42.0496 82.719C40.754 83.0838 39.4207 83.1844 38.1 83.4737C37.9365 83.5115 37.7226 83.5115 37.7226 83.7253C37.7352 83.9643 37.9616 83.914 38.1126 83.914C40.9175 83.8762 43.5716 83.2222 45.8483 81.5492C48.3766 79.7002 49.2822 76.7946 48.2382 74.1154C47.3954 71.9393 45.7225 70.6312 43.5213 70.0526C40.7289 69.323 37.8736 69.3985 35.0308 69.6123C34.2636 69.6626 33.4963 69.801 32.5906 69.9016C32.7667 69.7758 32.8296 69.7129 32.9051 69.6752C36.2384 67.7759 39.4081 65.6124 42.5402 63.4111C45.2823 61.4866 48.0244 59.537 50.2759 57.0213C53.3702 53.5622 55.8985 49.7887 57.0934 45.2353C57.1563 44.9963 57.2066 44.7951 57.5462 44.9334C58.628 45.3737 59.7097 45.8265 60.7034 46.4429C60.6783 46.5057 60.6657 46.5561 60.6405 46.5812C60.5147 46.6944 60.389 46.8076 60.2757 46.9208C58.5651 48.5057 57.0934 50.2667 56.1878 52.4302C54.6783 56.015 54.6406 59.537 57.0054 62.8074C58.6783 65.1218 60.9424 66.3293 63.848 65.801C66.9675 65.2476 69.2567 62.4426 69.546 59.059C69.8354 55.5245 68.6781 52.4679 66.5272 49.7384C65.4455 48.3673 64.1499 47.2227 62.716 46.2039C62.7789 46.1284 62.804 46.0655 62.8543 46.0278C64.2883 44.9712 65.8103 44.0404 67.3574 43.1599C67.5335 43.0593 67.7096 43.0467 67.8983 43.0593C70.5775 43.2605 73.2441 43.4114 75.8981 43.8894C80.5144 44.707 84.376 46.5812 86.4892 51.0717C86.7156 51.1723 86.942 51.2981 87.0301 50.9208C85.9232 46.9837 83.1307 44.7573 79.4327 43.4114C80.439 43.2857 81.4201 43.2479 82.4012 43.1347C85.8728 42.7574 89.3445 42.3045 92.7029 41.3234C95.2438 40.5813 97.7343 39.6253 100.376 39.1851C102.074 38.9084 103.759 38.8706 105.369 39.6002C105.634 39.726 105.885 39.8769 106.137 40.0279C106.275 40.1033 106.439 40.2794 106.564 40.0907C106.69 39.9146 106.476 39.7889 106.376 39.6757C106.112 39.3989 105.772 39.2354 105.407 39.1096C104.489 38.7952 103.546 38.6316 102.577 38.5813C101.432 38.5184 100.3 38.5562 99.1305 38.6694C101.935 37.1977 104.401 35.2858 106.74 33.1852C106.828 33.0971 106.841 32.9839 106.778 32.9085C106.451 32.506 106.59 32.2041 106.967 31.9399C107.055 31.877 107.08 31.7764 107.105 31.6758C107.332 31.2607 107.558 30.8456 107.797 30.4305C107.684 30.1915 107.898 29.8519 107.52 29.7764ZM10.1004 58.6817C7.96208 52.2667 10.0124 44.7825 15.2198 40.5058C21.3329 35.487 30.3391 35.2984 36.251 41.8769C36.339 41.9649 36.4145 42.0656 36.5528 42.2417C31.3454 44.0404 26.6536 46.6567 22.5027 50.229C18.3393 53.8264 15.1318 58.1408 12.7041 63.1722C11.4337 61.8388 10.6539 60.3294 10.1004 58.6817ZM56.9299 42.3297C56.8167 43.3234 56.8293 43.336 55.8859 43.0844C52.6029 42.2165 49.257 41.9649 45.886 41.9649H44.3766C46.1376 41.6253 47.9237 41.4995 49.7099 41.4744C51.974 41.4366 54.2255 41.6002 56.4771 41.814C56.8418 41.8391 56.9802 41.9272 56.9299 42.3297ZM68.3385 57.6754C68.2882 60.2791 67.5461 62.2413 65.6719 63.6376C63.2065 65.4866 59.6594 64.8199 57.6972 62.1281C55.7852 59.4993 55.6469 56.6188 56.7035 53.6377C57.6217 51.0466 59.2821 48.9711 61.3449 47.185C61.5462 47.0089 61.6845 47.0089 61.8858 47.1472C65.6719 49.7887 68.0869 53.2478 68.3385 57.6754ZM62.0493 45.4114C61.8355 45.5749 61.6845 45.512 61.4833 45.3988C60.3261 44.7196 59.1185 44.141 57.8481 43.7008C57.5588 43.6001 57.4833 43.4618 57.5336 43.1473C57.7097 41.9524 57.6972 41.9398 58.9047 42.0781C61.1688 42.3297 63.4203 42.5938 65.8606 42.8706C64.4518 43.7385 63.2191 44.5183 62.0493 45.4114Z" fill="#040006"/>
<path d="M42.1881 36.7702C40.6283 37.3362 39.534 38.5312 38.3768 39.8645C37.8988 36.9211 38.5403 34.2922 39.2196 31.6634C39.295 31.4873 39.2321 31.2986 39.3202 31.1225C39.3579 31.047 39.3453 30.959 39.3831 30.9338C39.2825 31.0596 39.295 31.3112 39.0812 31.3992C37.7856 33.9149 37.3328 36.5941 37.5969 39.4746C36.4649 38.1664 36.0624 35.8897 36.5907 34.0029C37.1567 32.003 38.402 30.4432 39.8611 29.0345C40.1881 28.72 40.2384 29.0093 40.3013 29.2106C41.1189 31.4873 41.4459 33.7891 40.7793 36.1664C40.7541 36.2419 40.7416 36.3174 40.7038 36.506C41.7478 36.0406 42.7793 35.852 43.8484 35.8268C44.0497 35.8268 44.2635 35.7513 44.1503 36.1413C43.5591 38.1538 41.3705 39.9274 39.2825 40.0406C39.1818 40.0406 39.0686 40.0406 38.8045 40.0406C39.7604 38.6318 41.0309 37.7639 42.3264 36.9211C42.3642 36.8457 42.4145 36.7828 42.4899 36.745C42.5528 36.6947 42.6283 36.6696 42.5906 36.6696C42.5403 36.6821 42.3767 36.7702 42.1881 36.7702Z" fill="#040006"/>
<path d="M19.4462 30.3803C19.6098 30.7954 19.7859 31.2105 19.9494 31.6256C19.9871 31.6885 19.9871 31.7765 19.9368 31.7891C19.4211 31.9274 19.1066 32.2545 19.0186 32.7954C19.0186 32.8205 18.9557 32.8079 18.9054 32.7828C18.7544 32.7073 18.7167 32.5689 18.6538 32.418C18.5783 32.1413 18.4525 31.9023 18.201 31.7513C17.8362 31.135 17.5721 30.4683 17.4085 29.764C17.3582 28.9086 17.4337 28.0407 17.0689 27.2231C17.0186 25.6131 17.3079 24.0659 17.7104 22.5188C17.7733 22.3049 17.811 22.1037 18.1003 22.3301C19.5594 23.4622 20.9053 24.7074 21.8487 26.3175C22.1506 27.1854 21.9619 28.091 22.0122 28.9715C22.0248 29.2357 21.9997 29.5124 22.0374 29.7765C22.0626 29.9275 22.0877 30.091 22.2764 30.091C22.4651 30.1036 22.4902 29.9275 22.5154 29.7891C22.5405 29.6004 22.528 29.4118 22.5657 29.2357C22.5908 29.0721 22.616 28.8835 22.8047 28.8331C23.0437 28.7703 23.1191 28.9589 23.2198 29.1225C23.9493 30.9589 23.8361 32.8205 23.3581 34.6821C23.2827 34.984 23.1443 34.9588 22.9934 34.7576C22.5657 34.2041 22.05 33.7136 21.8236 33.0218C21.8236 32.9966 21.8236 32.984 21.8236 32.9589C21.899 32.3551 21.8236 31.8394 21.0689 31.7639C20.7796 31.3866 20.6412 30.9337 20.4525 30.5061C20.3142 30.2419 20.5406 30.1539 20.6915 30.0281C20.855 29.8897 21.1569 29.8143 21.006 29.525C20.8676 29.2608 20.6286 29.374 20.4148 29.4747C20.3016 29.525 20.1884 29.5753 20.0626 29.4998C19.7733 28.9841 19.6098 28.4181 19.4462 27.8646C19.333 27.6508 19.4462 27.5502 19.6349 27.4873C19.8362 27.4244 20.05 27.4369 20.2513 27.4998C20.5028 27.5753 20.855 27.7766 20.9305 27.3992C20.9934 27.0973 20.5909 27.0344 20.3519 26.9338C19.9494 26.7703 19.4588 27.0093 19.0815 26.72C18.8676 26.0282 18.6664 25.3489 18.4525 24.6571C18.4148 24.6697 18.3897 24.6697 18.3519 24.6823C18.4274 25.4873 18.5029 26.2923 18.5783 27.0973C18.3771 27.5502 18.0878 27.9401 18.0878 28.481C18.0878 29.1979 18.3268 29.7388 18.9934 30.0407C19.1569 30.1413 19.3205 30.2419 19.4462 30.3803Z" fill="#040006"/>
<path d="M6.10057 35.4368C7.16974 37.0972 8.5911 38.4053 10.2389 39.4619C10.8678 39.8644 11.547 40.204 12.264 40.5311C9.22002 41.6631 5.24524 38.0154 4.36475 33.3362C7.74834 32.8582 12.5156 36.5563 12.8803 40.0028C10.2011 39.0342 8.21374 37.1601 6.22635 35.2984C6.17604 35.2733 6.12573 35.2481 6.07541 35.2104C6.0251 35.1727 5.98736 35.1349 5.99994 35.1727C5.98736 35.1978 6.07541 35.311 6.10057 35.4368Z" fill="#040006"/>
<path d="M56.4143 19.4623C56.6155 21.3239 56.8168 23.1981 56.5652 25.0723C56.5023 25.588 56.3891 26.0911 56.3011 26.6068C56.1501 26.8836 55.9363 26.9087 55.6847 26.7326C54.0747 24.6194 53.8734 22.2547 54.4898 19.7642C54.7791 18.607 55.2319 17.5001 55.8483 16.4686C58.8922 19.6258 59.735 24.1037 56.8797 27.1226C57.5463 24.2798 57.4331 21.588 56.5275 18.9592C56.4394 18.8963 56.4143 18.7956 56.3388 18.7327C56.4394 18.9717 56.2759 19.2233 56.4143 19.4623Z" fill="#040006"/>
<path d="M116.174 2.84609C116.401 3.00961 116.589 3.19828 116.69 3.46243C116.854 3.78947 116.703 4.01588 116.426 4.19198C116.074 4.41839 115.722 4.40581 115.407 4.10393C115.105 3.56306 114.803 3.02219 114.514 2.48131C114.476 2.49389 114.439 2.50647 114.401 2.51905C114.501 2.87124 114.602 3.22344 114.703 3.57564C114.715 3.60079 114.728 3.62595 114.715 3.63853C114.237 4.21714 114.552 4.56933 115.055 4.85864C115.923 7.563 116.413 10.3177 116.174 13.173C116.162 13.2988 116.187 13.4623 116.049 13.4874C115.885 13.5252 115.797 13.3617 115.696 13.261C113.533 11.3743 112.501 8.97178 112.388 6.14163C112.338 4.90895 112.401 3.67626 112.69 2.46874C113.03 2.55678 112.954 2.84609 112.979 3.0725C113.017 3.51274 112.967 3.95299 113.005 4.39323C113.017 4.56933 113.08 4.73285 113.294 4.73285C113.52 4.74543 113.596 4.58191 113.596 4.40581C113.634 3.61337 113.621 2.80835 113.596 2.01591C113.583 1.80208 113.47 1.67629 113.269 1.60082C113.017 1.5002 112.891 1.33668 113.03 1.05995C113.42 0.921589 113.634 0.519079 114.049 0.43103C114.137 0.506501 114.225 0.59455 114.3 0.67002C114.388 1.70145 114.929 2.35553 115.935 2.63225C116.023 2.66999 116.099 2.77062 116.174 2.84609Z" fill="#040006"/>
<path d="M50.1628 35.9022C52.0621 36.7324 53.9237 37.638 55.496 39.0217C55.7476 39.2355 55.9992 39.4493 56.3765 39.7638C55.1438 40.0657 54.1375 39.9902 53.1439 39.6883C50.8043 38.9714 49.2571 37.3236 48.0244 35.311C47.9364 35.1601 47.8609 35.0469 48.1251 34.9463C51.0684 33.8519 55.3325 35.7639 56.4268 38.6946C56.4646 38.7953 56.4897 38.8833 56.5652 39.1852C54.7162 37.4242 52.7288 36.267 50.4018 35.7639C50.1125 35.701 49.798 35.7639 49.5464 35.5626C49.7351 35.7135 50.0118 35.6884 50.1628 35.9022Z" fill="#040006"/>
<path d="M49.6596 22.2295C47.2068 22.9087 44.8295 22.5565 42.4522 22.2546C44.7037 23.2358 47.0433 23.3867 49.4458 22.959C48.1125 24.1288 46.5653 24.4936 44.8547 24.1666C43.3327 23.8773 42.0623 23.0722 40.8925 22.1037C40.7541 21.9905 40.49 21.8396 40.8422 21.6509C43.3453 20.3427 46.7037 19.7767 49.3074 21.8521C49.4206 21.9402 49.4961 22.0534 49.6596 22.2295Z" fill="#040006"/>
<path d="M71.2442 52.1662C71.1561 52.0907 71.0807 52.0027 70.9926 51.9272C70.892 51.3738 70.5146 51.0719 70.0115 50.8832C68.6153 49.1977 67.9235 47.248 67.848 44.9084C70.4769 46.4179 72.3385 48.5562 74.0492 50.858C74.0618 51.1599 73.8353 51.1348 73.6592 51.097C72.7159 50.9209 71.9989 51.248 71.4958 52.053C71.458 52.1536 71.3574 52.2039 71.2442 52.1662Z" fill="#040006"/>
<path d="M0 48.921C2.51569 47.3613 5.98733 47.2732 7.88667 49.2984C5.76092 49.9021 3.68548 49.5751 1.61004 49.2984C3.57227 50.1537 5.60998 50.3172 7.76089 49.877C5.81123 51.8015 2.42764 51.3738 0 48.921Z" fill="#040006"/>
<path d="M75.307 52.0027C73.8857 48.8329 71.6593 46.3424 68.7159 44.3676C72.5146 44.5059 75.6467 47.4493 76.5523 51.5121C76.0492 51.6379 75.7599 51.9523 75.7221 52.4806C75.2567 52.6064 75.4328 52.1788 75.307 52.0027Z" fill="#040006"/>
<path d="M45.4459 17.9151C44.2258 17.5377 43.4208 16.7327 42.9679 15.5755C42.5403 14.4686 42.5151 13.3365 42.7038 12.1793C42.7415 11.9277 42.7918 11.8648 43.056 11.9906C45.0182 12.8963 46.427 15.3868 46.1503 17.5C46.1377 17.5754 46.1125 17.6509 46.0748 17.8019C44.7038 16.544 44.0245 14.934 43.2824 13.3617C43.3704 14.2296 43.6723 15.022 44.0497 15.7893C44.4019 16.5566 44.9302 17.2232 45.4459 17.9151Z" fill="#040006"/>
<path d="M74.3008 31.7513C73.3071 30.8205 72.0996 30.2797 70.6782 29.8143C72.2505 29.4746 73.4706 29.852 74.5272 30.7954C75.2945 31.4746 75.7976 32.3425 76.2001 33.2733C76.2756 33.4494 76.3888 33.6004 76.0492 33.6507C73.936 33.9651 71.2191 32.4054 70.4266 30.418C70.4141 30.4055 70.4266 30.3803 70.4141 30.2671C71.8228 30.4935 72.9675 31.2231 74.1247 31.9274C74.4643 31.9526 74.7033 32.179 74.9297 32.4054C74.7662 32.1413 74.414 32.0658 74.3008 31.7513Z" fill="#040006"/>
<path d="M109.998 28.7199C112.967 24.9715 114.866 20.7577 115.596 16.0156C115.646 15.6886 115.671 15.349 115.722 15.022C115.747 14.8459 115.734 14.6069 116.023 14.6446C116.288 14.6823 116.262 14.8836 116.25 15.0848C116.174 16.5691 116.011 18.0408 115.608 19.4873C114.602 23.0973 112.879 26.3425 110.552 29.2733C110.086 29.3488 109.91 29.1727 109.998 28.7199Z" fill="#040006"/>
<path d="M118.049 6.22968C118.69 8.16676 118.602 10.0787 117.81 11.9654C117.633 12.4057 117.394 12.8082 117.08 13.1981C117.08 12.4812 117.08 11.7642 117.08 11.0472C117.08 9.67617 116.715 8.35544 116.539 7.00955C116.539 6.29258 116.803 6.04101 117.445 6.16679C117.646 6.21711 117.847 6.17937 118.049 6.22968Z" fill="#040006"/>
<path d="M54.1879 26.72C52.7666 24.2672 51.0307 22.0911 48.6786 20.4685C46.905 19.2484 44.9679 18.4685 42.8044 18.2799C42.6158 18.2673 42.3894 18.3302 42.2007 18.1667C45.5591 17.8648 50.9175 20.1792 54.3011 25.5879C54.3263 25.9779 54.7162 26.3929 54.1879 26.72Z" fill="#040006"/>
<path d="M71.2443 52.1661C71.8229 51.1095 72.6656 50.6567 73.8731 50.9837C73.9235 50.9963 73.9989 50.9082 74.0618 50.8579C74.3008 51.0214 74.4392 51.2604 74.5272 51.5246C74.414 52.0025 74.1499 52.2038 73.6593 52.0025C73.5838 51.9774 73.6845 52.0025 73.5964 51.9774C73.2442 51.9145 72.804 51.7887 72.6782 52.2038C72.565 52.6063 73.0304 52.7069 73.3323 52.8201C73.9864 53.0843 74.565 53.4365 74.8668 54.1157C74.9297 54.2415 75.0178 54.3673 74.9297 54.5308C73.5713 53.927 72.326 53.1723 71.2443 52.1661Z" fill="#040006"/>
<path d="M74.917 54.5434C74.6152 53.6629 73.9359 53.1975 73.0806 52.9082C72.7284 52.795 72.2756 52.644 72.4391 52.1535C72.6026 51.6629 73.1687 51.6377 73.5083 51.8138C74.024 52.078 74.2504 51.8642 74.5271 51.5245C74.7284 51.7761 74.9422 52.0277 75.1435 52.2918C75.2064 52.317 75.2315 52.3673 75.2315 52.4302C75.2064 52.5434 75.1183 52.5937 75.0428 52.6692C74.7787 52.9082 74.8542 53.0591 75.1812 53.122C75.3699 53.1597 75.5586 53.1346 75.7221 53.2604C75.7724 53.3107 75.7975 53.3736 75.8227 53.4365C75.8982 53.7509 75.8982 54.0654 75.8604 54.3673C75.8353 54.5559 75.8604 54.8075 75.546 54.8075C75.3196 54.7195 75.1183 54.6314 74.917 54.5434Z" fill="#040006"/>
<path d="M113.017 1.07263C113.042 1.24873 113.005 1.48772 113.306 1.44998C113.784 1.38709 113.784 1.68897 113.784 2.02859C113.772 2.82103 113.772 3.61347 113.784 4.40591C113.797 4.75811 113.759 4.98452 113.294 4.98452C112.803 4.98452 112.778 4.75811 112.766 4.36818C112.74 3.72668 112.904 3.08518 112.665 2.45626C112.703 1.97828 112.841 1.52546 113.017 1.07263Z" fill="#040006"/>
<path d="M75.5209 54.8076C75.8353 54.3297 75.5838 53.7888 75.6718 53.2856C75.7599 53.0341 75.4202 52.7951 75.6718 52.5435C75.6718 52.5058 75.6718 52.4555 75.6718 52.4177C75.697 51.3486 75.5838 51.5624 76.5649 51.5121C76.8542 52.0655 76.8542 52.6819 76.9171 53.2856C76.6404 53.6756 76.7536 54.1158 76.741 54.5309C76.741 54.7447 76.8542 54.9837 76.6781 55.185C76.2504 55.1598 75.8982 54.9712 75.5209 54.8076Z" fill="#040006"/>
<path d="M23.2072 29.1349C22.8676 28.8708 22.6664 28.8708 22.7167 29.3865C22.7418 29.5752 22.7041 29.7639 22.7167 29.9525C22.7418 30.2922 22.5783 30.3802 22.2639 30.3802C21.962 30.3802 21.811 30.3047 21.811 29.9651C21.8362 28.7576 21.8362 27.5501 21.8362 26.3425C22.4903 27.1727 22.9808 28.0909 23.2072 29.1349Z" fill="#040006"/>
<path d="M10.1256 80.9456V80.9581C10.0375 81.021 9.96207 81.1091 9.87402 81.1342C9.15705 81.3103 8.91806 81.7883 8.99353 82.4801C8.98095 82.4298 8.98095 82.3795 8.98095 82.3292C8.81743 80.7946 8.84259 79.2726 8.99353 77.7381C8.99353 77.7129 8.99353 77.6878 9.00611 77.6626C9.20736 77.801 9.15705 78.0903 9.33315 78.2412C9.47151 78.367 9.62245 78.4928 9.81113 78.4676C10.0375 78.4299 9.96207 78.216 9.99981 78.0651C10.025 77.9393 10.025 77.8135 10.1256 77.7255C10.1759 77.6752 10.2262 77.6626 10.2514 77.6752C10.3143 77.6878 10.352 77.7632 10.3897 77.8387C10.44 78.8827 10.4526 79.9267 10.1256 80.9456Z" fill="#040006"/>
<path d="M118.048 6.2297C117.91 6.33033 117.847 6.51901 117.583 6.43096C116.854 6.17939 116.791 6.2297 116.526 7.00957C116.225 6.49385 116.111 5.90266 115.898 5.34921C115.81 5.16054 115.784 4.93413 116.011 4.88381C116.451 4.79576 116.803 4.45615 117.269 4.46872C117.671 5.0096 117.898 5.61336 118.048 6.2297Z" fill="#040006"/>
<path d="M19.4463 30.3803C18.6916 30.2293 18.1004 29.8394 17.9621 29.0595C17.8237 28.33 17.8614 27.6004 18.5784 27.1099C18.8677 28.2042 19.157 29.2985 19.4463 30.3803Z" fill="#040006"/>
<path d="M67.4958 29.3866C65.7851 29.4243 64.1122 29.6633 62.5902 30.5061C62.4141 30.4306 62.1499 30.5312 62.0745 30.2545C63.9235 29.1728 65.8983 28.7703 68.0241 29.1099C67.9109 29.3237 67.6215 29.2105 67.4958 29.3866Z" fill="#040006"/>
<path d="M17.9494 80.216C17.7355 78.6688 18.3519 78.1531 19.2198 77.8512C19.572 77.7254 19.9619 77.8009 20.3393 77.8009C19.5468 78.6185 18.7418 79.4109 17.9494 80.216Z" fill="#040006"/>
<path d="M107.382 31.6633C108.011 30.9841 108.627 30.3049 109.256 29.6256C109.785 29.5376 109.923 29.764 109.747 30.2294C109.156 30.9086 108.552 31.5501 107.86 32.1287C107.533 32.1287 107.382 31.9652 107.382 31.6633Z" fill="#040006"/>
<path d="M18.9179 32.7828C18.8676 32.0407 19.3456 31.7766 19.962 31.6256C20.2261 32.2294 20.6663 32.7577 20.8676 33.3992C20.4525 33.5753 19.9871 33.2608 19.572 33.525C19.2953 33.3237 19.0689 33.0847 18.9179 32.7828Z" fill="#040006"/>
<path d="M19.5719 33.5249C19.6096 33.1727 19.7983 33.1727 20.0876 33.2482C20.3392 33.3111 20.6159 33.2734 20.8675 33.3866C21.3077 34.0029 21.7605 34.6067 22.2008 35.223C21.1694 34.8708 20.2763 34.33 19.5719 33.5249Z" fill="#040006"/>
<path d="M19.0688 26.7325C19.6978 26.7451 20.3644 26.6068 20.9179 27.0344C21.0562 27.1476 21.3959 27.2986 21.182 27.4747C21.0059 27.6382 20.855 28.1162 20.4022 27.764C20.1129 27.5501 19.6978 27.3237 19.4336 27.8646C19.3078 27.4998 19.1821 27.1225 19.0688 26.7325Z" fill="#040006"/>
<path d="M10.2388 77.6751C9.99982 78.0022 10.2137 78.4172 10.0376 78.7946C9.53442 78.5682 8.94323 78.455 8.98097 77.7254C8.98097 77.7003 8.98097 77.6751 8.99354 77.65C9.00612 77.4487 9.0187 77.26 9.03128 77.0588C9.44637 77.0588 9.87403 76.8198 10.2765 77.0462C10.2765 77.0462 10.2765 77.0462 10.2891 77.0462C10.3269 77.0714 10.352 77.0839 10.3897 77.1091C10.4149 77.3355 10.4275 77.5242 10.2388 77.6751Z" fill="#040006"/>
<path d="M108.489 27.0973C108.652 26.0155 108.816 24.9464 108.979 23.8646C109.244 25.2231 109.256 26.569 108.74 27.8646C108.514 27.9778 108.426 27.852 108.426 27.6507C108.439 27.4746 108.401 27.2734 108.489 27.0973Z" fill="#040006"/>
<path d="M116.174 2.84611C115.923 2.75806 115.659 2.68259 115.407 2.59454C114.501 2.2675 114.149 1.626 114.3 0.682617C114.979 1.34927 115.734 1.95304 116.174 2.84611Z" fill="#040006"/>
<path d="M117.294 4.48125C116.954 4.69509 116.665 5.00955 116.199 4.98439C115.935 4.97181 115.923 5.17307 115.923 5.36174C115.747 4.94666 115.583 4.51899 115.407 4.1039C116.25 4.29258 116.527 4.15422 116.69 3.4624C116.942 3.76428 117.168 4.09132 117.294 4.48125Z" fill="#040006"/>
<path d="M54.1879 26.7199C54.4269 26.3678 54.2382 25.9652 54.3011 25.5879C54.7287 26.242 55.1187 26.896 55.4331 27.613C55.3828 28.0407 55.647 28.5061 55.2822 28.896C54.9174 28.1665 54.5526 27.4495 54.1879 26.7199Z" fill="#040006"/>
<path d="M108.489 27.0973C108.627 27.3363 108.275 27.7388 108.74 27.8646C108.615 28.7828 108.212 29.5878 107.784 30.3928C107.495 30.2671 107.722 29.9274 107.508 29.7765C107.923 28.9086 108.174 27.9904 108.489 27.0973Z" fill="#040006"/>
<path d="M62.0745 30.2545C62.2129 30.4055 62.4771 30.3174 62.5903 30.5061C61.8985 30.8834 61.3324 31.4243 60.6909 31.8897C60.4645 31.8771 60.1249 32.2042 60.0872 31.6759C60.6783 31.0973 61.2821 30.5438 62.0745 30.2545Z" fill="#040006"/>
<path d="M55.2822 28.896C55.3828 28.4809 55.1186 28.0155 55.4331 27.613C55.7476 28.1665 55.9991 28.7451 56.213 29.3363C56.1375 29.8143 55.9865 29.852 55.5589 29.4998C55.4079 29.3237 55.3073 29.1224 55.2822 28.896Z" fill="#040006"/>
<path d="M87.3572 53.5246C87.4579 54.6064 87.2943 55.6252 86.6277 56.5309C86.8667 55.5875 86.9044 54.619 86.9799 53.6504C87.0931 53.5498 87.1937 53.4492 87.3572 53.5246Z" fill="#040006"/>
<path d="M10.2892 77.0587C10.2892 77.0587 10.2766 77.0713 10.2892 77.0587C9.86155 77.2977 9.44646 77.1719 9.03137 77.0587C9.06911 76.7568 9.09426 76.455 9.132 76.1656C9.40872 76.2537 9.68545 76.3166 9.93702 76.4424C10.176 76.5682 10.2641 76.4298 10.3773 76.2789C10.3898 76.304 10.415 76.3292 10.4276 76.3543C10.5911 76.6185 10.6288 76.87 10.2892 77.0587Z" fill="#040006"/>
<path d="M20.05 29.5125C20.3771 29.4621 20.5909 28.9464 21.0312 29.286C21.3456 29.525 21.3582 29.6885 21.0689 29.9653C20.8676 30.1539 20.4903 30.1414 20.44 30.5061C20.3142 30.1791 20.1884 29.8521 20.05 29.5125Z" fill="#040006"/>
<path d="M76.6655 55.1849C76.5272 54.7195 76.5523 54.2415 76.5523 53.7635C76.5523 53.5119 76.5901 53.2981 76.9045 53.2855C77.0932 53.8264 77.0303 54.3924 77.1184 54.9459C77.1938 55.449 76.9423 55.3358 76.6655 55.1849Z" fill="#040006"/>
<path d="M21.0688 31.7765C22.1129 31.8016 22.2261 31.9652 21.8613 32.9966C21.8613 33.0092 21.8236 33.0218 21.811 33.0343C21.3959 32.7073 21.2324 32.2419 21.0688 31.7765Z" fill="#040006"/>
<path d="M109.747 30.242C109.772 29.8898 109.596 29.6885 109.256 29.6382C109.508 29.3363 109.747 29.0344 109.998 28.7325C110.036 29.0596 110.212 29.2483 110.539 29.2734C110.275 29.5879 110.011 29.9149 109.747 30.242Z" fill="#040006"/>
<path d="M87.3572 53.5247C87.2314 53.5624 87.1056 53.6127 86.9924 53.6505C86.8163 53.4241 86.8666 53.1599 86.8918 52.8958C87.0176 52.5687 86.8415 52.2417 86.8666 51.9146C86.8792 51.7008 86.7912 51.4367 87.1308 51.3864C87.2566 52.0907 87.4956 52.7951 87.3572 53.5247Z" fill="#040006"/>
<path d="M67.4958 29.3866C67.4329 28.8457 67.9109 29.2985 68.0367 29.1099C68.5901 29.1224 69.131 29.2231 69.5712 29.613C68.8668 29.6507 68.175 29.5753 67.4958 29.3866Z" fill="#040006"/>
<path d="M17.0688 27.2357C17.7858 28.003 17.5091 28.8961 17.4085 29.7766C17.1695 28.9464 17.0688 28.0911 17.0688 27.2357Z" fill="#040006"/>
<path d="M107.382 31.6633C107.47 31.8897 107.684 31.9904 107.86 32.1413C107.822 32.33 107.659 32.3551 107.52 32.418C107.357 32.3551 107.206 32.1665 107.005 32.33C106.778 32.5187 106.979 32.7073 106.992 32.9086C106.929 33.0092 106.904 33.1602 106.728 33.1602C106.313 32.2168 106.313 32.2168 107.093 31.6508C107.168 31.8646 107.294 31.6508 107.382 31.6633Z" fill="#040006"/>
<path d="M114.049 0.443617C113.772 0.758077 113.558 1.17317 113.03 1.07254C113.067 0.921597 113.105 0.758077 113.155 0.607136C113.407 -0.172726 113.407 -0.172726 114.049 0.443617Z" fill="#040006"/>
<path d="M55.5464 29.4998C55.798 29.5753 56.0873 29.7891 56.2005 29.3363C56.4143 29.6005 56.5023 29.9149 56.5527 30.2545C56.364 30.418 56.0621 30.2923 55.9112 30.5313C55.7854 30.1916 55.6596 29.852 55.5464 29.4998Z" fill="#040006"/>
<path d="M87.1181 51.3989C86.7911 51.8643 87.1936 52.4429 86.8917 52.9083C86.7533 52.2794 86.615 51.663 86.4766 51.0341C86.6527 50.9838 86.8791 51.0719 87.0175 50.8832C87.1055 51.0341 87.1684 51.1976 87.1181 51.3989Z" fill="#040006"/>
<path d="M115.042 4.84599C114.011 4.48121 113.998 4.44348 114.69 3.56299C114.854 3.97808 114.992 4.40574 115.042 4.84599Z" fill="#040006"/>
<path d="M60.0872 31.6759C60.2004 31.9904 60.5526 31.6382 60.6909 31.8897C60.4771 32.2922 60.1878 32.6319 59.8104 32.896C59.8104 32.5941 59.8104 32.3048 59.8104 32.0029C59.8607 31.852 59.9236 31.7262 60.0872 31.6759Z" fill="#040006"/>
<path d="M106.992 32.896C106.803 32.8079 106.564 32.7199 106.665 32.4683C106.753 32.2545 106.954 32.0532 107.206 32.028C107.445 32.0029 107.47 32.2293 107.508 32.418C107.344 32.5815 107.168 32.745 106.992 32.896Z" fill="#040006"/>
<path d="M70.0115 50.8832C70.8668 50.9209 71.0178 51.0844 70.9926 51.9272C70.6404 51.6001 70.3008 51.2731 70.0115 50.8832Z" fill="#040006"/>
<path d="M106.086 32.1161C106.099 32.1538 106.099 32.1916 106.112 32.2419C106.288 32.9463 105.961 33.1349 105.332 33.0092C105.47 32.6192 105.797 32.3802 106.086 32.1161Z" fill="#040006"/>
<path d="M75.6718 52.5434C75.7347 52.7573 75.7976 52.9711 75.8605 53.1849C75.936 53.4617 75.7473 53.273 75.6718 53.2856C75.3322 53.0969 75.2568 52.7447 75.1687 52.4051C75.1435 52.3673 75.1436 52.3296 75.1436 52.2919C75.2819 52.2416 75.2819 52.1158 75.3071 52.0026C75.4957 52.1283 75.4329 52.4302 75.6718 52.5434Z" fill="#040006"/>
<path d="M74.3007 31.7513C74.7032 31.9652 74.98 32.3048 75.1812 32.7325C74.829 32.4683 74.4768 32.1916 74.1246 31.9274C74.1875 31.8645 74.2504 31.8017 74.3007 31.7513Z" fill="#040006"/>
<path d="M39.0686 31.3991C39.1315 31.1224 39.2321 30.8582 39.534 30.6444C39.446 31.0343 39.4208 31.374 39.207 31.6633C39.1692 31.5752 39.2195 31.4368 39.0686 31.3991Z" fill="#040006"/>
<path d="M56.4142 19.4623C56.2255 19.1226 56.301 18.7453 56.1626 18.3176C56.4896 18.4937 56.4771 18.7453 56.54 18.9591C56.3513 19.0975 56.4896 19.2987 56.4142 19.4623Z" fill="#040006"/>
<path d="M18.2136 31.7513C18.6664 31.7765 18.7419 32.0406 18.6664 32.418C18.3771 32.2922 18.3268 32.0029 18.2136 31.7513Z" fill="#040006"/>
<path d="M50.1628 35.9022C49.9112 35.8771 49.6974 35.7764 49.4207 35.5878C49.8357 35.55 50.125 35.6129 50.4018 35.7764C50.3263 35.8142 50.2383 35.8519 50.1628 35.9022Z" fill="#040006"/>
<path d="M6.10063 35.4368C5.86164 35.2859 5.79875 35.0217 5.69812 34.7701C5.89937 34.9211 6.13837 35.0217 6.22641 35.2984C6.1761 35.3488 6.13837 35.3991 6.10063 35.4368Z" fill="#040006"/>
<path d="M55.6847 26.7326C55.8985 26.7703 56.1124 26.7829 56.301 26.6068C56.2507 26.7829 56.213 26.9464 56.1627 27.1225C55.8859 27.0848 55.7727 26.9087 55.6847 26.7326Z" fill="#040006"/>
<path d="M42.188 36.7702C42.427 36.5563 42.7289 36.5438 43.1314 36.3802C42.8421 36.7199 42.6157 36.8456 42.3389 36.9211C42.2886 36.8708 42.2383 36.8205 42.188 36.7702Z" fill="#040006"/>
<path d="M39.9491 52.8831C39.8987 52.2668 39.8359 51.6378 39.8359 51.0215C39.8359 50.9712 39.8359 50.9209 39.8359 50.8831C39.6598 48.5184 39.0937 46.2669 37.9365 44.1788C37.7353 43.8266 37.5592 43.7512 37.1441 43.8266C34.6913 44.2669 32.5026 45.3612 30.3517 46.5436C23.1191 50.5309 17.6098 56.1787 14.0123 63.6502C13.8111 64.0779 13.874 64.2414 14.2388 64.4804C17.962 66.9961 23.0437 66.5055 26.1379 63.2477C27.2826 62.0402 28.1253 60.6566 27.2197 58.8956C27.1191 58.7069 27.182 58.5686 27.3455 58.4805C27.4964 58.405 27.597 58.4805 27.7102 58.6189C27.9492 58.9208 28.0876 59.2729 28.1505 59.6377C28.3769 61.0088 27.8612 62.1534 27.0562 63.1848C23.9116 67.2477 18.2513 68.1785 13.874 65.3483C13.5344 65.1219 13.3708 65.0339 13.1696 65.5244C11.7482 68.9961 10.7923 72.5809 10.3898 76.3041C10.3898 76.3419 10.3898 76.3796 10.4023 76.4173C10.4149 76.6438 10.4023 76.8576 10.3017 77.0714C10.3017 77.0714 10.3017 77.0714 10.3017 77.084C10.2891 77.2853 10.2766 77.4865 10.264 77.6878C10.2262 78.7821 10.1759 79.8638 10.1382 80.9582V80.9707C10.2262 84.2789 10.6791 87.5241 11.6602 90.6939C11.8992 91.4486 12.0753 92.241 12.5029 92.9328C12.3143 91.0586 12.4275 89.2096 12.7922 87.3731C13.2199 85.2222 13.9746 83.2097 15.2828 81.4361C15.3582 81.411 15.4211 81.3607 15.4714 81.3104C15.5595 81.2349 15.6224 81.1468 15.6853 81.0462C16.1004 80.4173 16.5532 79.8135 17.1066 79.3104C17.2073 79.2098 17.2953 79.1091 17.3582 78.9833C17.3959 78.9205 17.4085 78.8576 17.4337 78.7821C17.8362 78.2412 18.3519 77.8136 18.8425 77.3481C21.3707 74.9205 24.4021 73.1847 27.2323 71.1973C28.5027 70.3042 29.8737 69.5621 31.1693 68.7319C34.9554 66.3294 38.1252 63.4113 39.2195 58.8075C39.4585 58.5937 39.3704 58.317 39.3956 58.0528C39.3956 58.0151 39.4082 57.99 39.4082 57.9522C39.4208 57.9271 39.4208 57.9019 39.4333 57.8767L39.4208 57.8264L39.4585 57.7887C39.4711 57.7635 39.4837 57.7258 39.4962 57.7006C39.7855 57.0591 39.7981 56.3799 39.8736 55.7007C39.8736 55.6755 39.8862 55.6378 39.8862 55.6126C39.8862 55.5623 39.8987 55.512 39.8987 55.4743C40.0623 54.6189 40.0245 53.751 39.9491 52.8831ZM39.4585 57.7258C39.4459 57.7258 39.4333 57.7384 39.4208 57.7384C39.383 57.7887 39.3579 57.839 39.3453 57.9019C39.3076 58.0403 39.3201 58.2038 39.3201 58.3547C39.295 58.4679 39.2698 58.5811 39.2321 58.6943C39.2069 58.7447 39.1566 58.7824 39.1063 58.8201C39.0434 58.9082 38.9931 58.9962 38.9679 59.0968C37.9994 62.7194 35.7353 65.3861 32.7165 67.4615C29.6473 69.5747 26.4272 71.4614 23.3707 73.5872C21.3581 74.996 19.3959 76.4425 17.7104 78.2412C17.5469 78.4173 17.3582 78.5808 17.3205 78.845C16.5406 79.5745 15.8488 80.3921 15.3079 81.3104C15.2702 81.3229 15.2325 81.3355 15.2073 81.3481C14.9683 81.4613 14.8299 81.6625 14.6916 81.8764C14.4149 82.2789 14.2513 82.7317 14.0249 83.1594C13.0564 84.9958 12.5658 86.9832 12.352 89.0335C12.2388 90.1027 12.1507 91.1718 12.2765 92.1781C12.2262 91.9643 12.1382 91.7379 12.0627 91.4989C11.1948 88.7819 10.6413 85.9895 10.4149 83.1468C10.352 82.4047 10.4652 81.6374 10.1633 80.933C10.1508 80.933 10.1382 80.933 10.1256 80.933C10.4652 79.9141 10.4401 78.8701 10.3898 77.8135C10.352 77.7381 10.3143 77.6626 10.2514 77.65C10.4401 77.5117 10.4275 77.3104 10.3898 77.1092C10.352 77.084 10.3269 77.0588 10.2891 77.0463C10.6287 76.845 10.591 76.606 10.4275 76.3419C10.4526 76.3167 10.4652 76.3041 10.4778 76.279C10.5155 76.1532 10.5407 76.04 10.5533 75.9142C11.0187 72.4803 11.8489 69.1219 13.1822 65.9144C13.4337 65.298 13.4463 65.2854 14.0249 65.6251C15.5595 66.5055 17.1947 67.0716 18.9682 67.1345C21.4839 67.2099 23.7229 66.4049 25.6474 64.8075C26.9681 63.7131 28.1002 62.4553 28.3643 60.644C28.4524 59.9773 28.3266 59.3484 28.0121 58.7698C27.8738 58.5182 27.6725 58.2289 27.3203 58.3925C27.0059 58.5434 27.0813 58.8579 27.1945 59.1094C27.7228 60.2792 27.3455 61.3232 26.704 62.3043C26.1002 63.21 25.2952 63.9018 24.377 64.4804C21.2953 66.4049 17.6601 66.3672 14.5532 64.4553C14.1255 64.1911 14.0375 63.927 14.2891 63.4741C14.6916 62.732 15.0564 61.9773 15.4714 61.2603C17.5469 57.6252 20.138 54.4177 23.2826 51.663C25.509 49.7133 27.9367 48.0153 30.5404 46.6191C32.402 45.6128 34.2762 44.6317 36.3768 44.1663C37.7353 43.8644 37.7227 43.9021 38.3139 45.1977C39.1566 47.0341 39.5088 48.9838 39.7478 50.9586C39.8358 51.2605 39.7981 51.575 39.8107 51.8894C39.8107 52.3045 39.8233 52.5812 39.8862 52.7447C39.8987 53.6881 39.8736 54.6189 39.7478 55.5497C39.622 56.2793 39.534 57.0088 39.4585 57.7258Z" fill="#040006"/>
<path d="M51.4081 50.1913C51.5213 50.3548 51.7351 50.5686 51.3326 50.6315C48.339 51.1975 45.4585 51.1221 42.8925 49.1976C42.3139 48.7699 41.8359 48.2416 41.4334 47.6504C41.3328 47.4995 41.1064 47.3737 41.2321 47.1724C41.3328 47.0215 41.5466 47.1096 41.6975 47.1096C43.4711 47.185 45.144 47.7007 46.8044 48.3045C47.4962 48.5561 48.1251 48.9712 48.8547 49.1347C48.905 49.0844 48.9553 49.0466 49.0182 48.9963C47.1943 47.6882 45.1818 46.858 42.968 46.5309C42.5151 46.4681 42.0623 46.4303 41.4586 46.38C42.2007 45.9272 42.8799 45.7888 43.5592 45.7008C45.2698 45.4995 46.8421 45.9272 48.2635 46.8957C49.5339 47.7888 50.5276 48.9208 51.4081 50.1913Z" fill="#040006"/>
<path d="M40.7792 53.6001C40.7666 54.0278 40.666 54.4428 40.6534 54.8705C40.7037 54.9586 40.754 55.0466 40.8044 55.1598C40.8547 54.5812 40.8924 54.0026 40.9427 53.4114C40.8798 53.4743 40.8295 53.5372 40.7792 53.6001ZM40.7792 53.6001C40.7666 54.0278 40.666 54.4428 40.6534 54.8705C40.7037 54.9586 40.754 55.0466 40.8044 55.1598C40.8547 54.5812 40.8924 54.0026 40.9427 53.4114C40.8798 53.4743 40.8295 53.5372 40.7792 53.6001ZM55.9991 44.3801C55.0557 44.1788 54.1375 43.9021 53.1815 43.726C49.2445 42.9713 45.2571 43.0342 41.2823 43.2606C40.4773 43.3109 39.6849 43.4241 38.8044 43.5248C40.4144 46.3675 41.0559 49.3612 40.9301 52.5183C40.905 52.5561 40.8798 52.5938 40.8547 52.6315C40.7289 52.8705 40.7541 53.1221 40.7666 53.3863C40.7666 53.424 40.7666 53.4617 40.7666 53.4869C40.7666 53.5246 40.7666 53.5624 40.7666 53.6001C40.7541 54.0278 40.6534 54.4428 40.6408 54.8705C40.6408 54.9208 40.6408 54.9711 40.6408 55.0214C40.6408 55.0466 40.6408 55.0718 40.6408 55.0969C40.6157 55.3862 40.5402 55.6755 40.5025 55.9648C40.5025 55.9774 40.5025 56.0026 40.4899 56.0151C40.4899 56.0277 40.4899 56.0529 40.4773 56.0655C40.3767 56.9711 40.1503 57.8642 40.0748 58.7698C40.0622 58.8327 40.0622 58.8956 40.0622 58.9459C39.4711 61.5245 38.1881 63.7509 36.5529 65.8137C37.9491 65.0087 39.295 64.166 40.6283 63.3106C44.8924 60.5685 48.842 57.4491 52.0621 53.4743C54.0872 50.9586 55.496 48.1285 56.3513 45.0216C56.4771 44.6442 56.4142 44.4681 55.9991 44.3801ZM56.0997 45.3738C55.0683 49.1347 53.0809 52.3548 50.4394 55.185C47.7602 58.0403 44.7288 60.4679 41.4459 62.6188C39.9742 63.5874 38.4774 64.5182 36.9931 65.449C37.9491 64.3421 38.6912 63.0968 39.2698 61.7509C39.6597 60.8578 40.1251 59.9648 40.1754 58.9585C40.1503 58.9333 40.1377 58.8956 40.1251 58.8704C40.1377 58.8453 40.1503 58.8201 40.1629 58.795C40.4522 57.9019 40.5276 56.9585 40.6786 56.0403C40.7163 55.7384 40.754 55.4365 40.7918 55.1472C40.8421 54.5686 40.8798 53.99 40.9301 53.3988V52.5812C41.1188 52.38 41.0937 52.1158 41.1062 51.8643C41.1062 49.1599 40.578 46.5813 39.3201 44.1663C39.1189 43.7889 39.1063 43.6506 39.5968 43.5877C41.3075 43.3612 43.0182 43.3487 44.7288 43.2606C45.9867 43.1977 47.2319 43.2984 48.4898 43.3487C50.8923 43.4619 53.2444 43.8141 55.5589 44.4304C56.2381 44.6191 56.2758 44.7323 56.0997 45.3738ZM40.7792 53.6001C40.7666 54.0278 40.666 54.4428 40.6534 54.8705C40.7037 54.9586 40.754 55.0466 40.8044 55.1598C40.8547 54.5812 40.8924 54.0026 40.9427 53.4114C40.8798 53.4743 40.8295 53.5372 40.7792 53.6001Z" fill="#040006"/>
<path d="M15.2577 81.4236C15.2828 81.3858 15.2954 81.3607 15.3206 81.3229C15.8615 80.3921 16.5533 79.5871 17.3331 78.8576C17.3583 78.8324 17.3834 78.8073 17.4212 78.7821C18.0627 80.4299 16.7294 81.7506 15.2577 81.4236Z" fill="#040006"/>
<path d="M40.9428 52.5184V53.4114C40.8799 53.4743 40.8296 53.5372 40.7792 53.6001C40.339 54.1158 40.3138 54.2416 40.6535 54.8705C40.7038 54.9586 40.7541 55.0466 40.8044 55.1598C40.7667 55.4617 40.7289 55.7636 40.6912 56.0529C40.6283 56.0655 40.5654 56.0781 40.5025 56.0781C40.2258 56.0781 40.0371 55.9145 39.861 55.7259C39.8107 55.6756 39.7604 55.6127 39.7101 55.5623C39.8359 54.6315 39.861 53.7007 39.8484 52.7574C39.8484 52.1787 39.8359 51.6127 39.8359 51.0341C39.8359 50.9838 39.8359 50.9335 39.8359 50.8958C40.1126 51.5121 39.8736 52.1662 40.012 52.7951C40.3264 52.7196 40.6031 52.4806 40.9428 52.5184Z" fill="#040006"/>
<path d="M40.6912 56.0528C40.5402 56.9711 40.4648 57.9144 40.1755 58.8075C40.1629 58.8327 40.1503 58.8578 40.1377 58.883C40.1252 58.9081 40.1 58.9333 40.0874 58.9584C39.9113 58.7823 39.7101 58.6691 39.8987 58.3044C40.0371 58.0402 40.0497 57.5748 39.4459 57.8012C39.4459 57.7761 39.4585 57.7509 39.4585 57.7258C39.5466 56.9962 39.6346 56.2667 39.7226 55.5371C39.773 55.5623 39.8233 55.5874 39.8862 55.6252C40.1 55.7384 40.3138 55.8516 40.5277 55.9522C40.578 55.9899 40.6283 56.0151 40.6912 56.0528Z" fill="#040006"/>
<path d="M39.2069 58.8075C39.2195 58.7697 39.2321 58.7194 39.2321 58.6817C39.2572 58.5685 39.2824 58.4553 39.3201 58.3421C39.3453 58.2414 39.3704 58.1408 39.3956 58.0528C39.3956 58.0402 39.4082 58.015 39.4082 58.0024C39.3956 58.2917 39.7604 58.6691 39.2069 58.8075Z" fill="#040006"/>
<path d="M39.4335 57.8893C39.4209 57.9273 39.4082 57.9653 39.4082 58.0032C39.4082 57.9906 39.4082 57.9779 39.4082 57.9652C39.4082 57.9399 39.4082 57.9146 39.4335 57.8893Z" fill="#040006"/>
<path d="M23.3707 32.6946C23.1191 33.1349 22.7418 33.1475 22.4021 32.8707C22.0877 32.6192 22.138 32.2544 22.3896 31.9777C22.6537 31.6758 22.9807 31.7009 23.2952 31.9148C23.4461 32.0154 23.509 32.1663 23.4587 32.355C23.421 32.5185 23.2826 32.4934 23.1568 32.5185C22.943 32.5688 22.6914 32.3928 22.5405 32.6443C22.5279 32.6695 22.5782 32.7701 22.616 32.7953C22.8927 33.0217 23.1065 32.7827 23.3707 32.6946Z" fill="#040006"/>
<path d="M112.879 7.62586C113.055 7.14788 113.08 6.70764 112.929 6.26739C112.891 6.17935 112.766 6.0913 112.904 6.01583C113.005 5.96551 113.13 6.00325 113.143 6.12903C113.155 6.51896 113.382 6.36802 113.608 6.36802C114.011 6.36802 114.275 6.60701 114.288 7.0221C114.3 7.43719 114.049 7.61329 113.646 7.61329C113.394 7.62586 113.143 7.62586 112.879 7.62586Z" fill="#040006"/>
<path d="M75.1561 52.4052C75.3196 52.6945 75.4957 52.9838 75.6592 53.2856C75.4705 53.2856 75.2944 53.2982 75.1057 53.2856C74.9045 53.2731 74.6781 53.336 74.6655 53.0089C74.6529 52.7448 74.6529 52.5058 75.0177 52.5058C75.068 52.5058 75.1183 52.4429 75.1561 52.4052Z" fill="#040006"/>
<path d="M9.04395 79.3732C9.68544 79.8637 9.68544 80.1404 9.04395 80.5178C9.04395 80.1404 9.04395 79.7757 9.04395 79.3732Z" fill="#040006"/>
<path d="M51.3326 50.6441C48.339 51.2101 45.4585 51.1346 42.8925 49.2101C42.3139 48.7825 41.8359 48.2542 41.4334 47.663C41.3328 47.5121 41.1064 47.3863 41.2321 47.185C41.3328 47.0341 41.5466 47.1221 41.6976 47.1221C43.4711 47.1976 45.144 47.7133 46.8044 48.3171C47.4962 48.5686 48.1251 48.9837 48.8547 49.1473C49.0182 49.1598 49.1691 49.185 49.2823 49.2227C49.2069 49.1724 49.0937 49.0969 49.0182 49.0089C47.1943 47.7007 45.1818 46.8706 42.968 46.5435C42.5151 46.4806 42.0623 46.4429 41.4586 46.3926C42.2007 45.9398 42.8799 45.8014 43.5592 45.7133C45.2698 45.5121 46.8421 45.9398 48.2635 46.9083C49.5465 47.7762 50.5528 48.9208 51.4207 50.1913C51.5087 50.3548 51.7226 50.5686 51.3326 50.6441Z" fill="#040006"/>
<path d="M40.9428 53.4114C40.8925 53.99 40.8548 54.5686 40.8045 55.1598C40.7541 55.122 40.6913 55.0717 40.6409 55.0214C40.012 54.4428 40.0623 53.8642 40.7667 53.4868C40.8296 53.4617 40.8799 53.4365 40.9428 53.4114Z" fill="#040006"/>
<path d="M49.798 49.5373C49.4332 49.4996 49.1188 49.3738 48.842 49.1474C48.8924 49.0971 48.9427 49.0593 49.0056 49.009C49.3703 49.0342 49.5087 49.4115 49.798 49.5373Z" fill="#040006"/>
<path d="M113.596 7.48752C113.369 7.4372 113.168 7.29884 113.181 7.03469C113.206 6.75797 113.407 6.59445 113.696 6.6196C113.961 6.64476 114.036 6.82086 114.023 7.05985C114.023 7.33657 113.898 7.48752 113.596 7.48752Z" fill="#040006"/>
</svg>
