<svg width="68" height="93" viewBox="0 0 68 93" fill="none" xmlns="http://www.w3.org/2000/svg">
<circle cx="34" cy="34" r="34" fill="#C4C4C4"/>
<path d="M35.5 34C35.5 33.1716 34.8284 32.5 34 32.5C33.1716 32.5 32.5 33.1716 32.5 34L35.5 34ZM32.9393 92.0607C33.5251 92.6464 34.4749 92.6464 35.0607 92.0607L44.6066 82.5147C45.1924 81.9289 45.1924 80.9792 44.6066 80.3934C44.0208 79.8076 43.0711 79.8076 42.4853 80.3934L34 88.8787L25.5147 80.3934C24.9289 79.8076 23.9792 79.8076 23.3934 80.3934C22.8076 80.9792 22.8076 81.9289 23.3934 82.5147L32.9393 92.0607ZM32.5 34L32.5 91L35.5 91L35.5 34L32.5 34Z" fill="black"/>
</svg>
