<svg width="76" height="76" viewBox="0 0 76 76" fill="none" xmlns="http://www.w3.org/2000/svg">
<rect width="76" height="76" rx="11.1765" fill="#8F8A8A"/>
<path d="M37.4804 59.3798C25.3564 59.3755 15.6332 49.6003 15.647 37.4115C15.6608 25.3385 25.6164 15.4433 37.905 15.6503C49.7668 15.8498 59.5739 25.6537 59.3754 37.8902C59.1812 49.8137 49.4017 59.436 37.4804 59.3798Z" fill="white"/>
<path d="M33.9981 44.6277C33.9981 42.4359 33.9886 40.2432 34.0066 38.0514C34.0098 37.6608 33.9164 37.5239 33.5088 37.5441C32.821 37.5781 32.1301 37.543 31.4413 37.5579C31.1568 37.5643 31.0337 37.4995 31.0379 37.1811C31.0539 35.8374 31.0517 34.4937 31.039 33.15C31.0369 32.8741 31.1133 32.7817 31.3956 32.7892C32.1025 32.8072 32.8115 32.769 33.5162 32.8051C33.9323 32.8263 34.014 32.6777 34.0055 32.2956C33.9822 31.1111 33.9801 29.9266 34.0013 28.7422C34.0289 27.2233 34.4057 25.8372 35.6517 24.8299C36.5645 24.0923 37.6524 23.7898 38.7902 23.6879C40.3939 23.5425 42.0051 23.6412 43.612 23.6168C43.8911 23.6126 43.9761 23.724 43.9739 23.9936C43.9644 25.3723 43.9612 26.751 43.976 28.1297C43.9792 28.4609 43.82 28.5033 43.5526 28.5002C42.7045 28.4917 41.8554 28.4885 41.0074 28.5002C39.9206 28.5161 39.6308 28.8122 39.6223 29.899C39.6159 30.7301 39.6361 31.5612 39.6138 32.3911C39.6043 32.7244 39.7125 32.8072 40.0341 32.8019C41.2006 32.7839 42.3681 32.8083 43.5335 32.787C43.8975 32.7807 43.958 32.8889 43.9219 33.2339C43.7871 34.498 43.6736 35.7652 43.5897 37.0336C43.5653 37.4093 43.4347 37.4974 43.0824 37.4889C42.1102 37.4666 41.1369 37.5048 40.1657 37.4709C39.72 37.4549 39.6096 37.5919 39.6106 38.0291C39.6266 42.3606 39.6117 46.692 39.6319 51.0224C39.634 51.5149 39.4981 51.6476 39.0152 51.638C37.5314 51.6083 36.0455 51.6041 34.5606 51.6402C34.0724 51.6518 33.9822 51.4926 33.9875 51.0437C34.0108 48.9061 33.9981 46.7674 33.9981 44.6277Z" fill="#8F8A8A"/>
</svg>
