<svg width="29" height="20" viewBox="0 0 29 20" fill="none" xmlns="http://www.w3.org/2000/svg">
<path d="M1.85596 9.05235C1.13995 9.05235 0.55952 9.63278 0.55952 10.3488C0.55952 11.0648 1.13995 11.6452 1.85596 11.6452V9.05235ZM28.1776 11.2655C28.6838 10.7592 28.6838 9.93836 28.1776 9.43207L19.9271 1.18159C19.4208 0.675298 18.5999 0.675298 18.0936 1.18159C17.5873 1.68788 17.5873 2.50874 18.0936 3.01503L25.4274 10.3488L18.0936 17.6825C17.5873 18.1888 17.5873 19.0097 18.0936 19.516C18.5999 20.0223 19.4208 20.0223 19.9271 19.516L28.1776 11.2655ZM1.85596 11.6452H27.2608V9.05235H1.85596V11.6452Z" fill="black"/>
</svg>
