<svg width="76" height="76" viewBox="0 0 76 76" fill="none" xmlns="http://www.w3.org/2000/svg">
<rect width="76" height="76" rx="11.1765" fill="#8F8A8A"/>
<path d="M49.0388 55.8738C49.2245 56.9671 49.3449 58.0683 49.4014 59.1761C48.446 59.435 47.4709 59.5724 46.4839 59.5745C40.625 59.5849 34.7666 59.5833 28.9078 59.5849C28.7703 59.5849 28.6308 59.602 28.4965 59.5537C28.5214 59.3904 28.6531 59.4495 28.7485 59.4318C29.4145 59.4168 30.0805 59.409 30.7464 59.4407C31.0649 59.4023 31.3844 59.4215 31.7034 59.422C32.8766 59.4256 34.0504 59.4069 35.2236 59.4313C35.2578 59.4318 35.2915 59.4199 35.3242 59.4106C35.5395 59.3826 35.7531 59.4235 35.9684 59.423C37.791 59.4199 39.6136 59.4215 41.4362 59.421C42.0887 59.4204 42.1696 59.3291 42.0965 58.6746C42.0207 57.9967 41.9554 57.3172 41.8278 56.6466C41.7987 56.4951 41.8376 56.3593 41.8682 56.2182C41.9798 56.1222 42.1157 56.1565 42.2412 56.1559C43.3817 56.1523 44.5223 56.1466 45.6623 56.1559C46.7131 56.1642 47.7484 56.0543 48.7696 55.8074C48.8609 55.7856 48.9906 55.6886 49.0388 55.8738Z" fill="white"/>
<path d="M25.1816 58.9817C25.2433 58.8396 25.2241 58.6964 25.192 58.5512C24.9456 57.4283 24.5664 56.352 24.0545 55.323C23.9778 55.1689 23.8953 55.017 23.8865 54.8396C23.9933 54.6275 24.1147 54.8043 24.1961 54.8494C24.6406 55.0958 25.0981 55.3105 25.5721 55.4921C25.7086 55.5439 25.8491 55.5859 25.9835 55.642C26.0571 55.6726 26.1546 55.684 26.1671 55.7929C26.1219 55.9054 26.2127 55.977 26.2475 56.0657C26.6375 57.0533 26.8994 58.075 27.0664 59.1217C27.0841 59.2322 27.0778 59.3437 26.9471 59.3951C26.3393 59.3364 25.7568 59.1741 25.1816 58.9817Z" fill="white"/>
<path d="M26.9467 59.3948C26.8409 58.317 26.5406 57.2869 26.1827 56.2708C26.1314 56.1246 26.0743 55.9809 26.0645 55.8237C26.0655 55.7356 26.1303 55.6987 26.1952 55.7184C26.8352 55.9109 27.5043 55.9715 28.1464 56.1557C28.5271 57.0997 28.704 58.0939 28.8684 59.0913C28.8948 59.2532 28.9363 59.4228 28.7584 59.5364C28.6713 59.5421 28.5841 59.5483 28.4965 59.554C27.9742 59.555 27.4576 59.5032 26.9467 59.3948Z" fill="white"/>
<path d="M34.8295 56.2924C36.302 56.2898 37.7745 56.2851 39.247 56.2846C40.1427 56.2841 41.0379 56.2898 41.9337 56.2924C42.0281 57.0278 42.1251 57.7633 42.2164 58.4993C42.247 58.7472 42.2667 58.9972 42.2879 59.2462C42.3045 59.4365 42.2205 59.5423 42.0224 59.5439C42.0053 59.5439 41.9876 59.546 41.9705 59.546C39.761 59.5434 37.5515 59.5403 35.3419 59.5377C35.2449 59.4801 35.178 59.4132 35.1656 59.2856C35.0805 58.4054 34.9426 57.533 34.7714 56.6653C34.747 56.5398 34.6817 56.3961 34.8295 56.2924Z" fill="white"/>
<path d="M34.8294 56.2925C35.0483 57.2707 35.2096 58.2582 35.3009 59.2567C35.3097 59.3511 35.3284 59.4444 35.3424 59.5383C33.804 59.5378 32.2657 59.5373 30.7278 59.5368C30.6122 59.4672 30.5618 59.3677 30.5452 59.2302C30.4358 58.3397 30.2667 57.4595 30.0406 56.5907C30.0105 56.4751 29.9892 56.3698 30.1101 56.293C31.6827 56.2925 33.2558 56.2925 34.8294 56.2925Z" fill="white"/>
<path d="M30.1094 56.2925C30.3947 57.3589 30.5996 58.4403 30.7272 59.5368C30.0711 59.5368 29.4144 59.5362 28.7583 59.5362C28.7028 58.5969 28.4725 57.6908 28.2293 56.7878C28.18 56.6058 28.1344 56.4227 28.0872 56.2401C28.7599 56.3003 29.4352 56.2743 30.1094 56.2925Z" fill="white"/>
<path d="M28.5411 15.6739C28.6874 15.6651 28.8337 15.6485 28.9794 15.6485C34.7335 15.648 40.4876 15.6449 46.2417 15.65C52.8724 15.6558 58.6037 20.6946 59.4745 27.2729C59.5653 27.9596 59.6078 28.6489 59.6083 29.3398C59.612 34.8517 59.6114 40.363 59.6099 45.8749C59.6099 46.1503 59.5855 46.4263 59.5725 46.7017C59.4802 46.7147 59.4403 46.6535 59.4439 46.5819C59.4963 45.572 58.9797 44.7193 58.6638 43.8163C58.1021 42.2105 57.3807 40.6701 56.6483 39.1359C56.5689 38.9704 56.4429 38.8267 56.4087 38.6405C56.3858 38.5161 56.2162 38.5928 56.1924 38.4756C56.1592 38.3392 56.1711 38.2002 56.1711 38.0627C56.1701 35.0991 56.1836 32.1349 56.1665 29.1712C56.1519 26.6754 55.3594 24.4436 53.7106 22.5608C51.9056 20.4996 49.6234 19.3414 46.8761 19.121C46.3662 19.08 45.8579 19.0774 45.3486 19.0769C43.3092 19.0743 41.2698 19.0759 39.2304 19.0753C39.1012 19.0753 38.971 19.0836 38.8424 19.0608C38.7247 18.844 38.498 18.7667 38.3046 18.6495C36.7185 17.6853 35.1132 16.7553 33.4234 15.9794C33.1739 15.8648 32.9218 15.8072 32.649 15.8077C31.3798 15.8108 30.1111 15.8108 28.842 15.8046C28.7377 15.8051 28.5655 15.8866 28.5411 15.6739Z" fill="white"/>
<path d="M28.5411 15.6738C29.801 15.6769 31.0613 15.7013 32.3202 15.6728C32.8741 15.6603 33.3679 15.7765 33.857 16.0203C35.4871 16.8336 37.0769 17.7189 38.6209 18.6857C38.7257 18.7511 38.8154 18.8278 38.874 18.9383C38.8829 19.0265 38.8336 19.0612 38.7548 19.069C38.6521 19.0794 38.5488 19.0768 38.4456 19.0768C35.345 19.0768 32.2444 19.0586 29.1438 19.0825C26.3129 19.1043 23.8902 20.1323 21.9146 22.1701C20.3929 23.7396 19.4909 25.6162 19.1942 27.7826C19.1797 27.889 19.1864 28.0098 19.0231 27.9963C18.0749 27.737 17.104 27.6047 16.1356 27.4569C16.0091 27.4377 15.8778 27.418 15.798 27.2967C15.8566 26.5254 16.0345 25.7754 16.285 25.0498C17.9069 20.3538 21.1102 17.331 25.9151 16.0431C26.7683 15.8144 27.6459 15.6536 28.5411 15.6738Z" fill="white"/>
<path d="M56.308 38.4459C56.5393 38.5559 56.6228 38.7857 56.7224 38.99C57.5855 40.7581 58.378 42.5564 59.0398 44.4106C59.1181 44.63 59.183 44.8556 59.2789 45.0667C59.517 45.5885 59.6046 46.1336 59.572 46.7021C59.5113 47.9427 59.3095 49.1585 58.8993 50.3333C57.335 54.8156 54.2665 57.7269 49.7282 59.0988C49.6213 59.1309 49.5103 59.1501 49.4009 59.1755C49.2997 59.1081 49.2759 59.007 49.2655 58.8929C49.1747 57.8825 49.0326 56.8773 48.9424 55.867C48.9538 55.6891 49.1146 55.6942 49.2235 55.6574C49.9128 55.423 50.5814 55.1424 51.2022 54.7606C53.9646 53.0594 55.6166 50.6227 56.0668 47.394C56.1514 46.7856 56.1726 46.1741 56.1716 45.56C56.1659 43.297 56.1685 41.0336 56.1731 38.7706C56.1737 38.6555 56.0995 38.4848 56.308 38.4459Z" fill="white"/>
<path d="M15.7974 27.2961C16.8031 27.376 17.7906 27.5736 18.7766 27.7759C18.8726 27.7956 18.9535 27.8418 19.0131 27.9211C19.1682 27.9922 19.148 28.1359 19.133 28.2583C19.0603 28.8444 19.092 29.4325 19.0915 30.0197C19.0883 33.4418 19.0904 36.864 19.0889 40.2867C19.0889 40.4413 19.106 40.5979 19.0609 40.7499C18.9073 40.8816 18.7445 40.8266 18.5837 40.7717C17.8648 40.5258 17.1361 40.3163 16.3913 40.1653C16.315 40.1498 16.2388 40.1358 16.1615 40.1311C15.9753 40.1202 15.8674 40.2063 15.8384 40.3899C15.8192 40.5097 15.8223 40.6306 15.8238 40.7514C15.8384 42.0616 15.7917 43.3717 15.8487 44.6819C15.8498 44.7073 15.8368 44.7322 15.829 44.7566C15.8119 45.2441 15.8301 45.7312 15.8228 46.2182C15.8207 46.3463 15.8353 46.4755 15.7995 46.6015C15.7839 46.6658 15.7907 46.7462 15.6905 46.7472C15.6351 46.4832 15.6485 46.214 15.6485 45.948C15.6465 40.4013 15.6454 34.8547 15.6548 29.3086C15.6563 28.6364 15.6631 27.9606 15.7974 27.2961Z" fill="white"/>
<path d="M25.1818 58.9818C24.7622 58.9123 24.3825 58.7251 23.994 58.569C23.5236 58.3802 23.0578 58.1784 22.6299 57.9009C21.952 56.0721 20.9676 54.443 19.5179 53.1162C18.8011 52.4601 18.0189 51.8947 17.159 51.4409C16.9712 51.3418 16.783 51.2454 16.6263 51.0991C16.2773 50.2843 16.0216 49.443 15.8981 48.5639C15.8758 48.2895 15.9246 48.2428 16.1855 48.331C16.9526 48.5898 17.6937 48.9129 18.4028 49.304C18.8338 49.5415 19.2757 49.7656 19.6507 50.0924C19.7186 50.1515 19.799 50.1333 19.8763 50.1396C19.9889 50.207 20.022 50.3299 20.0739 50.4357C20.9095 52.1447 22.1206 53.5208 23.717 54.5571C23.828 54.6292 23.9691 54.6769 24.0132 54.8268C23.9935 54.9175 24.0101 54.9824 24.0651 55.0731C24.2969 55.4544 24.465 55.8698 24.6356 56.2816C24.9432 57.0244 25.1698 57.7925 25.3353 58.5783C25.3674 58.7292 25.4577 58.9346 25.1818 58.9818Z" fill="white"/>
<path d="M16.6262 51.0985C16.9094 51.1011 17.1319 51.2655 17.3607 51.3947C19.8098 52.778 21.551 54.7785 22.5691 57.4029C22.6308 57.5616 22.7128 57.7224 22.6298 57.9003C21.8912 57.5507 21.2434 57.0632 20.6153 56.5508C18.8897 55.1441 17.5972 53.4071 16.7113 51.3667C16.6739 51.2816 16.6537 51.1882 16.6262 51.0985Z" fill="white"/>
<path d="M19.8347 50.2691C19.6843 50.2484 19.5609 50.169 19.4385 50.0866C18.4603 49.4247 17.4053 48.9159 16.2974 48.514C16.1657 48.4662 16.0049 48.3418 15.898 48.5632C15.7554 47.9663 15.6937 47.3604 15.6901 46.7474C15.6958 46.6971 15.7015 46.6462 15.7072 46.5959C15.8451 46.4502 16.0028 46.5327 16.1439 46.5736C16.8078 46.7676 17.4587 46.9995 18.0832 47.2972C18.3939 47.4455 18.7295 47.5466 19.0044 47.7671C19.0573 47.8096 19.1314 47.7946 19.1921 47.82C19.2191 47.8537 19.2388 47.891 19.2486 47.9341C19.4131 48.653 19.6153 49.3599 19.8923 50.0446C19.9224 50.1177 19.9893 50.2302 19.8347 50.2691Z" fill="white"/>
<path d="M18.9515 40.7277C18.9515 42.4217 18.9515 44.1151 18.9515 45.8091C18.8468 45.9636 18.7213 45.8781 18.6082 45.8314C17.9313 45.5503 17.2482 45.2873 16.5423 45.0876C16.3681 45.0383 16.1943 44.987 16.0185 44.9455C15.881 44.9128 15.769 44.8511 15.6995 44.724C15.6985 43.2406 15.6959 41.7572 15.6969 40.2739C15.6969 39.9321 15.7451 39.8968 16.0797 39.9601C16.8349 40.1032 17.5786 40.2905 18.3079 40.5347C18.52 40.6053 18.7368 40.6634 18.9515 40.7277Z" fill="white"/>
<path d="M15.6993 44.7234C16.7082 44.9563 17.6853 45.2856 18.6355 45.6954C18.7377 45.7395 18.8456 45.7711 18.9509 45.809C18.9504 46.5045 18.9758 47.198 19.106 47.8836C18.8254 47.8447 18.5925 47.6839 18.3461 47.5667C17.495 47.1622 16.6163 46.8385 15.7066 46.5958C15.705 45.9713 15.7019 45.3473 15.6993 44.7234Z" fill="white"/>
<path d="M26.8004 35.1273C27.22 33.2269 28.1038 31.5646 29.414 30.1341C33.7241 25.4282 41.0265 25.2711 45.5129 29.7804C49.7167 34.0055 49.8381 40.7985 45.78 45.1667C44.0633 47.0142 41.9533 48.1485 39.4679 48.5821C39.3916 48.5956 39.3138 48.5972 39.2365 48.6039C39.1115 48.5219 39.0441 48.4016 38.9803 48.2688C38.5695 47.413 38.1235 46.5764 37.6281 45.7657C37.5343 45.6117 37.305 45.5365 37.3481 45.3015C37.3978 45.1843 37.5062 45.2154 37.5934 45.2149C39.4642 45.2014 41.125 44.6029 42.5482 43.3918C44.0399 42.1231 44.9061 40.4997 45.1685 38.5604C45.3703 37.0697 45.1146 35.6444 44.4626 34.3001C43.7775 32.8862 42.7355 31.785 41.3672 31.007C40.0555 30.2612 38.6359 29.9199 37.1338 30.0309C35.305 30.1658 33.7013 30.8545 32.3766 32.1424C31.0509 33.4318 30.2719 34.9925 30.0805 36.8384C30.0696 36.9422 30.0504 37.0438 29.9741 37.1232C29.8222 37.1714 29.6951 37.1268 29.5717 37.0334C28.8211 36.465 28.0348 35.952 27.2174 35.4852C27.0577 35.3934 26.9005 35.2928 26.8004 35.1273Z" fill="white"/>
<path d="M26.8004 35.1271C26.9969 35.153 27.1406 35.2837 27.304 35.3771C28.1105 35.8371 28.8859 36.3434 29.6287 36.9009C29.7096 36.9616 29.8092 36.9979 29.8999 37.0451C30.1012 37.0633 30.0306 37.2235 30.026 37.3221C29.9746 38.3464 30.123 39.3413 30.5037 40.2904C31.236 42.1166 32.4673 43.5139 34.2272 44.405C35.1566 44.8754 36.1478 45.1825 37.2054 45.2157C37.2987 45.2188 37.4315 45.1841 37.4217 45.3563C37.515 45.4045 37.5985 45.4621 37.6556 45.5544C38.208 46.4423 38.7105 47.3568 39.1452 48.3085C39.1877 48.4019 39.2069 48.5056 39.237 48.6047C38.5306 48.7572 37.8112 48.7603 37.0996 48.7126C32.9492 48.4325 29.86 46.448 27.8227 42.8376C27.1209 41.5943 26.7158 40.2422 26.5753 38.8153C26.457 37.6167 26.5032 36.4284 26.7558 35.2495C26.7641 35.2064 26.7853 35.1675 26.8004 35.1271Z" fill="white"/>
<path d="M49.958 22.4015C51.5747 22.4088 52.8522 23.6966 52.8444 25.3118C52.8366 26.9388 51.5519 28.1935 49.902 28.1857C48.2998 28.1779 47.0519 26.8854 47.0602 25.2423C47.0685 23.665 48.3647 22.3948 49.958 22.4015Z" fill="white"/>
</svg>
