<svg width="166" height="71" viewBox="0 0 166 71" fill="none" xmlns="http://www.w3.org/2000/svg">
<g clip-path="url(#clip0_2_22)">
<path d="M70.0768 11.1065C67.2689 8.22401 56.1579 5.52358 51.8705 7.40478C51.6592 10.8941 52.0517 11.8954 49.0928 15.415C45.3791 2.67145 26.6898 6.06974 13.1332 14.0497C1.7807 20.7249 -5.7675 39.1424 5.70577 47.3954C7.51733 44.5129 12.2274 38.839 15.7902 36.8061C13.9484 46.9403 8.30235 55.345 17.7225 63.1125C20.2285 64.9937 24.3347 66.9356 28.1088 66.3894C19.3529 73.9142 22.7647 70.3338 37.4384 69.1202C42.1485 74.8244 78.0175 65.0544 116.302 68.6954C125.511 69.8787 123.82 68.1492 121.948 65.6005C127.956 64.5992 133.301 61.8685 137.165 57.5903C137.316 57.3475 137.437 57.1048 137.527 56.8317C138.645 56.862 139.49 56.4373 140.245 55.7091C142.63 53.4031 144.351 51.4005 146.374 48.9732C147.31 48.7304 148.729 49.58 148.729 50.3689C147.068 52.8266 145.891 54.5864 144.11 57.0744C143.083 58.3488 144.049 58.986 145.921 60.1997C148.337 61.6561 149.001 62.0202 151.597 63.1428C153.409 63.9621 155.341 63.8103 156.73 62.3843C160.263 58.8646 161.742 57.0138 164.912 53.5851C166.211 52.1287 166.513 50.5813 164.912 49.4586C161.863 45.3928 151.416 36.5026 148.065 34.5911C145.438 33.074 142.932 33.1347 140.969 35.0766C138.765 33.6505 135.656 32.5279 133.753 31.739C130.583 26.2471 128.288 21.5138 120.71 19.1471C120.77 16.6591 121.857 16.2343 121.495 11.592C117.691 4.40093 109.901 -1.15163 103.621 0.213753C95.8614 1.45777 79.9498 5.55392 70.0768 11.1065ZM105.734 59.2894C102.836 56.8924 100.692 54.4954 100.904 52.068C99.6054 53.6458 98.5788 55.3753 97.8542 57.2262C100.511 57.4082 103.108 58.2578 105.734 59.2894ZM78.2289 53.6762C75.4813 52.6749 71.4355 52.3714 67.8727 52.1591C73.0961 51.886 77.5646 50.4296 81.2481 48.1236C79.9498 49.6103 79.0441 51.4915 78.2289 53.6762ZM93.9291 19.6932C93.1743 17.3569 90.004 16.0522 85.7771 15.5364C89.0681 14.3834 92.7516 13.7462 96.7068 13.5035C95.6199 15.5061 94.7141 17.6907 93.9291 19.6932Z" fill="black"/>
<path d="M98.972 42.8124L104.92 32.3141C107.456 28.0966 109.087 25.4872 111.291 21.7248C113.132 18.5692 114.582 16.3542 115.578 14.6551C116.031 14.8978 116.423 15.2013 116.152 16.0508C113.585 22.635 108.936 28.0055 105.554 34.0132C110.566 26.8829 118.416 15.5957 117.933 13.9572C117.782 13.1684 117.239 12.8043 116.605 12.6525C117.752 9.92177 116.605 8.89015 112.257 5.79528C108.724 3.30724 108.513 3.12519 105.252 3.51964C96.6472 6.12904 72.3118 7.4034 61.2914 25.1837C78.8032 11.3782 91.9069 10.2555 101.961 10.2252L93.2052 30.0991C88.6461 35.7427 81.9735 41.9628 73.127 42.9641C68.9 43.4496 68.9302 40.6278 70.1077 37.6542C75.1499 34.6807 87.4384 33.7098 91.605 27.2166C94.2619 23.1205 92.7825 20.2684 87.7101 18.5085C73.6704 14.2607 61.08 30.0081 60.2648 33.8919C48.3085 31.1611 50.1503 33.7705 41.032 33.8615C46.8592 31.0701 50.3012 30.6453 56.6719 26.003C60.9895 22.8474 66.7261 17.75 67.7527 11.5299C65.3372 9.19357 58.2721 7.85853 54.7999 8.25297C54.3169 11.9547 54.649 13.3504 52.2336 16.9004C49.0935 21.5427 44.2325 24.9107 39.4922 28.2179C37.741 29.4316 34.2386 31.9196 32.3667 32.6478C34.2386 25.7299 40.5188 20.147 44.7759 15.0495C47.5839 11.7119 41.8774 9.34528 38.0429 8.76878C30.3136 7.61579 14.7341 14.9585 9.05785 20.8145C6.40089 23.5453 4.58932 26.7008 3.77412 30.6149C3.20045 33.3154 3.23064 38.9286 4.46855 40.9008C5.88761 39.8995 13.2547 31.6466 15.6701 29.3709C17.5722 27.5504 19.3536 25.7299 21.3765 23.9701C22.4635 22.9991 23.2485 22.3316 24.3656 21.4517C25.5129 20.5414 26.5395 19.5705 27.8982 19.176C21.5275 31.1004 19.2328 34.0739 16.7268 47.6367C16.0022 51.4901 15.338 53.5837 17.3307 56.6179C19.1724 59.4094 21.8898 60.7748 25.8752 61.6243C31.944 62.8987 32.9706 62.6256 31.9138 58.1047C31.1288 54.6154 30.0418 47.576 30.3438 42.8124C30.9476 42.8427 31.793 42.9944 31.8232 44.5722C31.7628 47.0906 31.4609 52.7645 33.1819 59.197C31.6119 46.9085 33.1517 43.5709 32.3969 41.9628C32.1252 41.5683 31.1892 41.2953 30.4646 41.2649C30.4947 40.9312 30.5551 40.6278 30.6457 40.3243C33.6348 39.2624 45.4704 38.079 49.0633 37.7149C48.6708 38.3825 43.4776 42.0538 40.6697 45.3914C38.3147 48.2132 34.299 53.8265 39.9451 55.647C40.9716 55.9807 42.119 56.0111 43.3267 55.8897C48.2179 52.3094 57.3059 49.4876 63.7068 49.1538C58.1212 48.1222 55.3132 48.3953 51.3882 49.5483C53.4111 47.2119 56.8531 45.088 59.5402 41.4773C64.2201 53.3107 78.5617 47.8795 89.0084 38.5645C88.6159 39.232 88.2536 39.8085 87.9214 40.4154C87.4082 41.4773 82.1848 50.7923 81.7017 54.0085C86.8043 54.9188 90.5784 56.0414 93.1448 56.891C97.2812 50.0641 104.678 39.6568 111.653 35.9854C111.23 37.2598 106.188 44.2991 104.709 48.7897C104.105 50.6406 106.822 54.8884 108.271 56.7089C114.068 63.9607 117.541 64.6282 124.213 62.0795C127.172 60.9568 130.252 59.2577 132.275 57.7406C133.241 57.0124 133.875 56.1628 134.207 55.2829C131.369 53.9175 128.47 52.3397 125.511 50.6406C122.281 53.5837 117.178 57.0124 111.925 57.0427L112.831 56.4662C114.431 55.556 114.28 55.8897 114.612 54.9491C115.276 54.9795 116.031 54.8581 116.423 54.585C117.782 53.1589 117.692 49.6393 124.274 38.0487C119.986 43.935 117.933 49.4876 116.937 51.9453C116.393 53.1286 115.759 53.4017 115.216 53.4017C117.993 46.3927 122.402 37.2598 127.565 32.1927C127.383 31.5859 127.142 31.0094 126.87 30.4632C126.146 29.5226 125.391 28.5517 124.696 27.6414C122.885 25.9423 120.681 24.7893 118.929 23.697C113.827 26.2457 103.863 37.9577 98.972 42.8124ZM43.7192 64.2641C44.0815 64.8102 45.0779 65.1743 50.0597 64.9923C59.8723 64.3854 83.936 63.2021 109.811 65.5991C61.7745 64.3854 49.3954 68.0568 42.2095 67.1769C40.5489 66.8735 38.8581 65.8115 37.892 64.8406L30.4646 65.5991C31.7628 63.6269 39.0997 58.9542 41.5453 57.4978C48.0971 53.6444 50.0295 53.1286 56.6417 53.2803C71.0437 53.6141 80.7054 55.3132 93.3562 57.7406C102.625 59.7128 110.928 62.0491 117.873 64.8709L118.416 65.0833C107.275 63.6269 96.7076 62.8683 86.8043 62.8077C78.4409 62.5953 69.7152 62.7166 62.4085 63.0201C56.8229 63.2628 51.2976 63.5359 46.0138 63.991L43.7192 64.2641ZM87.1364 24.85C83.2718 28.7944 77.6257 28.2483 72.8552 29.9474C75.8745 25.4568 79.5882 22.3923 84.6908 22.3923C86.8949 22.4833 88.1026 23.6666 87.1364 24.85Z" fill="#D0D2D4"/>
<path d="M139.37 38.7163C149.122 44.0868 149.364 43.2069 144.593 48.0919C138.283 54.5547 139.159 55.1615 132.969 51.915C131.339 51.0351 127.142 49.2449 125.904 48.1526C124.032 46.5141 125.964 44.7543 127.655 42.7214C128.923 41.2043 131.037 38.5342 132.516 37.3205C134.811 35.4393 136.804 37.3205 139.37 38.7163ZM134.66 51.7329L129.437 49.1539C130.584 48.456 132.063 47.9402 133.271 47.4244L136.985 45.9376C138.162 45.4521 139.551 45.0274 140.759 44.5722C143.295 43.571 145.71 42.1145 146.556 43.9654C147.069 45.088 142.51 48.7898 142.268 48.9415L134.66 51.7329Z" fill="#D0D2D4"/>
<path d="M164.339 51.6722C163.645 53.3714 157.999 58.6509 156.429 60.1073C154.527 61.8671 154.225 62.4436 151.568 61.3513C149.907 60.6534 146.767 59.197 146.556 57.8923C146.345 56.5573 151.84 49.9124 153.168 48.2739C154.557 46.5748 156.278 47.3333 158.452 48.4863C159.992 49.2449 163.252 50.7316 164.339 51.6722ZM149.364 59.197C149.907 58.8633 159.056 55.3133 160.203 55.0402C159.086 56.4359 156.912 58.4688 155.553 59.6521C153.198 61.6851 152.353 60.9872 149.364 59.197Z" fill="#D0D2D4"/>
<path d="M124.183 46.0893C124.908 43.3889 127.202 39.8389 130.191 36.3192C128.984 30.0688 122.402 23.4239 119.594 23.2419C118.205 23.0902 116.907 23.9094 115.608 24.9714C113.434 27.1863 111.774 24.8804 114.038 23.4543C116.182 21.9372 118.235 20.147 121.013 21.0876C125.662 23.6667 129.769 27.6111 132.788 34.256C136.592 33.7402 146.163 39.4748 149.243 41.6594C149.847 42.0539 150.572 42.6 150.572 43.6923C150.27 45.4825 150.904 45.9376 152.383 44.6026C153.349 43.9654 154.436 44.5115 155.493 44.9363C153.379 42.4483 148.76 38.9893 146.797 37.7453C145.378 36.653 144.291 37.2902 143.839 37.715C142.752 37.0171 142.812 37.0171 141.906 36.653C142.691 35.8034 143.144 35.591 143.929 35.0449C144.684 34.5898 145.831 34.6504 147.371 35.6214C152.836 39.0197 159.901 45.6039 164.068 50.6103C161.532 48.6684 158.603 47.0906 156.399 46.241C155.161 45.6949 153.742 45.9376 152.866 46.9389C151.991 48.0009 151.115 49.0325 150.239 50.1248C150.119 47.8188 148.488 47.4851 145.831 47.9098C146.707 47.2423 147.492 46.3927 148.488 45.2094C149.666 43.6316 147.492 41.6898 145.409 40.2637L145.348 40.203C139.974 37.3509 134.569 34.256 132.244 35.8641C129.769 38.3218 127.202 40.8705 124.183 46.0893Z" fill="#D0D2D4"/>
</g>
<defs>
<clipPath id="clip0_2_22">
<rect width="166" height="71" fill="white"/>
</clipPath>
</defs>
</svg>
