<svg width="68" height="68" viewBox="0 0 68 68" fill="none" xmlns="http://www.w3.org/2000/svg">
<rect width="68" height="68" rx="10" fill="#8F8A8A"/>
<path d="M31.8525 14.2265C18.1162 16.2577 10.549 31.3034 17.1735 43.457C17.5103 44.0762 17.5654 44.5744 17.3366 45.2296C16.2202 48.4143 15.1503 51.6139 14 55C17.5972 53.8614 20.9868 52.8012 24.3636 51.7072C24.8678 51.5439 25.2767 51.5185 25.764 51.7687C29.6238 53.7342 33.7041 54.3088 37.9792 53.7024C47.434 52.3645 54.8339 43.9998 54.997 34.4373C55.2088 21.9529 44.2584 12.3903 31.8525 14.2265ZM44.3855 47.774C38.7037 51.6393 32.6533 51.7771 26.5859 48.5543C25.7894 48.1323 25.1644 48.0581 24.3403 48.3528C22.69 48.9423 21.0016 49.4257 19.078 50.03C19.7475 48.0645 20.3173 46.3322 20.9338 44.6169C21.1287 44.0719 21.0885 43.6648 20.758 43.1644C16.932 37.3866 17.04 30.0079 20.9995 24.37C25.0077 18.66 32.1957 15.9885 39.0087 17.6762C45.5718 19.3004 50.7642 24.9256 51.5904 31.5727C52.4357 38.3704 50.0418 43.9256 44.3855 47.774Z" fill="white"/>
<path d="M43.1477 42.282C41.8241 43.6934 40.2232 44.2973 38.3833 43.86C32.5524 42.479 28.5954 38.5263 25.7794 33.0584C25.223 31.9739 24.996 30.8028 25.0001 29.8504C25.0121 28.2615 25.5143 26.8869 26.5808 25.783C27.8241 24.4972 29.4029 24.8348 30.0497 26.5038C30.369 27.3329 30.6161 28.2074 31.0258 28.9823C31.5903 30.056 31.3834 30.95 30.598 31.6752C29.662 32.541 29.8488 33.2727 30.4996 34.2381C31.994 36.4547 33.854 38.1172 36.202 39.1779C36.7664 39.4333 37.1481 39.3597 37.5056 38.8575C37.7085 38.5718 37.9354 38.3077 38.1463 38.0284C39.2571 36.5608 39.2571 36.5586 40.9001 37.3964C41.4444 37.6713 42.0008 37.9245 42.519 38.2471C43.0433 38.5718 43.8929 38.5783 43.9733 39.3835C44.0777 40.4312 43.8909 41.4919 43.1477 42.282Z" fill="white"/>
</svg>
